<svg width="25" height="31" viewBox="0 0 25 31" fill="none" xmlns="http://www.w3.org/2000/svg">
<path d="M12.5269 0.377441C9.36852 0.381167 6.34061 1.63746 4.10733 3.87075C1.87405 6.10403 0.617752 9.13194 0.614026 12.2903C0.610244 14.8713 1.45332 17.3822 3.01392 19.438C3.01392 19.438 3.33882 19.8658 3.39188 19.9275L12.5269 30.701L21.6662 19.9221C21.7138 19.8647 22.0398 19.438 22.0398 19.438L22.0409 19.4347C23.6007 17.3799 24.4434 14.8701 24.4397 12.2903C24.436 9.13194 23.1797 6.10403 20.9464 3.87075C18.7131 1.63746 15.6852 0.381167 12.5269 0.377441ZM12.5269 16.6222C11.6701 16.6222 10.8325 16.3682 10.1202 15.8922C9.40778 15.4162 8.85254 14.7396 8.52467 13.948C8.1968 13.1565 8.11101 12.2855 8.27816 11.4452C8.44531 10.6048 8.85788 9.83296 9.46372 9.22713C10.0695 8.6213 10.8414 8.20872 11.6817 8.04157C12.5221 7.87442 13.3931 7.96021 14.1846 8.28809C14.9762 8.61596 15.6527 9.1712 16.1287 9.88358C16.6047 10.596 16.8588 11.4335 16.8588 12.2903C16.8574 13.4387 16.4005 14.5398 15.5884 15.3518C14.7763 16.1639 13.6753 16.6208 12.5269 16.6222Z" fill="#FF9839"/>
</svg>
