<svg width="27" height="26" viewBox="0 0 27 26" fill="none" xmlns="http://www.w3.org/2000/svg">
<path d="M14.9707 7.05437C18.0074 7.05437 19.3027 8.34962 19.3027 11.3863H22.1906C22.1906 6.72947 19.6276 4.16641 14.9707 4.16641V7.05437ZM19.912 14.914C19.6346 14.6618 19.27 14.5273 18.8952 14.5388C18.5204 14.5504 18.1648 14.7072 17.9034 14.976L14.448 18.5297C13.6163 18.3708 11.9441 17.8496 10.2229 16.1327C8.50169 14.41 7.98042 12.7335 7.82591 11.9076L11.3767 8.4507C11.6458 8.18952 11.8028 7.83386 11.8144 7.45898C11.826 7.0841 11.6913 6.71943 11.4388 6.44212L6.10324 0.575232C5.85061 0.297059 5.49949 0.128326 5.12445 0.104869C4.74941 0.0814123 4.37999 0.205079 4.09467 0.449606L0.961231 3.13685C0.711583 3.3874 0.562576 3.72087 0.542477 4.07399C0.520817 4.43499 0.107839 12.9862 6.7386 19.6199C12.5232 25.403 19.7691 25.8261 21.7647 25.8261C22.0563 25.8261 22.2354 25.8174 22.283 25.8146C22.6361 25.7948 22.9694 25.6451 23.2187 25.3944L25.9045 22.2595C26.1492 21.9743 26.2732 21.605 26.25 21.23C26.2268 20.855 26.0583 20.5037 25.7804 20.2509L19.912 14.914Z" fill="#FF9839"/>
</svg>
